<?xml version="1.0" encoding="UTF-8" standalone="no"?>
<svg
   xmlns:dc="http://purl.org/dc/elements/1.1/"
   xmlns:cc="http://creativecommons.org/ns#"
   xmlns:rdf="http://www.w3.org/1999/02/22-rdf-syntax-ns#"
   xmlns:svg="http://www.w3.org/2000/svg"
   xmlns="http://www.w3.org/2000/svg"
   version="1.1"
   id="svg2"
   width="410"
   height="139"
   viewBox="0 0 410 139">
  <metadata
     id="metadata8">
    <rdf:RDF>
      <cc:Work
         rdf:about="">
        <dc:format>image/svg+xml</dc:format>
        <dc:type
           rdf:resource="http://purl.org/dc/dcmitype/StillImage" />
        <dc:title></dc:title>
      </cc:Work>
    </rdf:RDF>
  </metadata>
  <defs
     id="defs6" />
  <g
     id="g10">
    <path
       style="fill:#ffffff"
       d="m 51.506413,136.11808 c -3.025,-0.74107 -9.1,-2.99244 -13.5,-5.00305 C 27.180814,126.1682 13.963935,113.04166 7.8171276,101.1321 1.5338615,88.958139 0.10057853,83.040879 0.18717123,69.632099 0.27280323,56.372009 3.0745398,45.052429 9.1170776,33.553459 19.014298,14.719012 31.272512,6.0799815 54.550592,1.5339865 c 9.43624,-1.84281096 30.971098,-1.61868796 39.205836,0.408032 13.114662,3.227757 24.772422,11.0546305 31.909432,21.4235855 6.39191,9.286435 9.14678,31.529585 5.3857,43.484755 -4.25063,13.51131 -16.6269,20.9242 -38.795147,23.23677 -6.54265,0.68252 -6.75,0.63501 -6.75,-1.5467 0,-1.23797 0.7875,-3.17097 1.75,-4.29556 1.734441,-2.02653 1.727773,-2.02978 -0.75,-0.36609 -1.375,0.92324 -4.75,3.01324 -7.5,4.64443 -2.75,1.6312 -6.66252,4.52718 -8.69449,6.43551 -2.031969,1.90834 -4.233999,3.64954 -4.893398,3.86934 -0.927672,0.30922 -0.921901,0.91723 0.02551,2.687491 3.007125,5.61886 -2.088062,3.41295 -15.564933,-6.738691 -14.549085,-10.95929 -18.372689,-18.01957 -18.372689,-33.92513 0,-10.05772 1.533738,-13.93151 7.021602,-17.7346 10.261864,-7.11148 20.952402,-7.14773 28.428985,-0.0964 3.370747,3.17902 3.576967,3.2384 5.162359,1.48657 2.761057,-3.05094 9.753215,-5.8752 14.545495,-5.8752 6.390168,0 12.609092,3.53085 16.591566,9.42001 5.54461,8.19922 4.24504,15.6213 -5.049094,28.83613 -6.792162,9.65743 -6.730241,9.14435 -1.02198,8.46829 6.752804,-0.79977 15.793744,-4.08484 19.934864,-7.24343 9.65751,-7.36614 11.78256,-28.48906 4.44385,-44.17153 C 117.77916,25.853424 108.35612,15.862332 101.21477,12.365556 89.254918,6.5093925 69.00469,5.1341845 54.006413,9.1596035 36.589023,13.834292 20.012122,27.042489 12.981055,41.847919 c -5.1615794,10.86881 -7.074766,22.54633 -5.5771924,34.0415 2.179204,16.72727 8.2330374,28.869631 19.7967444,39.706951 19.266084,18.05586 46.24442,22.17512 69.219223,10.56894 3.62263,-1.83004 8.33597,-4.72367 10.47409,-6.43028 4.40522,-3.51616 5.90528,-3.88963 5.43408,-1.35293 -0.46636,2.5106 -13.030974,10.63432 -21.821587,14.10887 -13.091458,5.17449 -27.292491,6.49523 -39,3.62711 z M 67.069322,94.494449 c 1.6154,-1.72571 7.887091,-6.8412 13.937091,-11.36775 6.05,-4.52656 12.069431,-9.39172 13.376514,-10.81147 2.471929,-2.68501 2.340709,-5.27881 -0.318684,-6.29931 -2.779053,-1.06643 -15.832754,7.85291 -33.540562,22.91759 l -3.292929,2.80142 2.824921,2.94858 c 1.553708,1.62173 3.10654,2.94859 3.45074,2.94859 0.3442,0 1.947509,-1.41195 3.562909,-3.13765 z M 50.102596,77.049189 c 1.964238,-3.07059 3.328345,-5.8259 3.03135,-6.12289 -0.57091,-0.57091 -13.627533,2.70577 -13.627533,3.41996 0,1.91033 4.745489,8.28584 6.167409,8.28584 0.471588,0 2.464537,-2.51231 4.428774,-5.58291 z m 14.325076,-1.74024 c 0.868308,-0.72773 7.203741,-4.86597 14.078741,-9.19608 9.677903,-6.09547 13.345913,-7.8851 16.246829,-7.92685 4.386974,-0.0631 4.752054,-1.40331 1.731732,-6.3572 l -2.013963,-3.30328 -5.732299,4.8963 c -3.152765,2.69297 -8.222039,6.65444 -11.265054,8.80328 -9.947211,7.02426 -16.859114,12.77292 -16.349314,13.59779 0.701075,1.13437 1.48147,1.01295 3.303328,-0.51396 z M 181.14208,103.40237 c -5.20452,-1.37782 -12.12338,-8.166061 -13.52562,-13.270271 -1.98696,-7.23261 -1.76143,-7.64295 4.01349,-7.30226 4.84357,0.28574 5.18509,0.48839 6.25,3.70859 2.1735,6.57248 10.12663,9.8684 19.34104,8.01529 8.54002,-1.71749 12.76618,-8.63646 8.49615,-13.90972 -1.30118,-1.60689 -5.30381,-3.14437 -14.67299,-5.63613 -19.27667,-5.12671 -22.53773,-7.90168 -22.53773,-19.17823 0,-4.46448 0.54796,-6.71485 2.25,-9.24038 6.39598,-9.4905 26.76843,-11.81908 38.0785,-4.35239 3.9195,2.58758 7.60836,8.92664 7.64954,13.14523 0.0199,2.03546 -0.45351,2.25 -4.96462,2.25 -4.73214,0 -5.05954,-0.17462 -6.41647,-3.42222 -1.88895,-4.52089 -5.28295,-6.59815 -11.76949,-7.20339 -8.74372,-0.81584 -15.75416,4.3659 -14.15905,10.46562 0.79098,3.02471 3.83798,4.38473 17.11639,7.63983 17.11045,4.19449 21.60029,8.09832 21.57585,18.75978 -0.0233,10.16385 -4.6696,16.289811 -14.58957,19.235721 -5.7449,1.70605 -16.27512,1.84636 -22.13542,0.29493 z m 117.99184,-0.17931 c -5.98905,-2.22629 -10.84144,-6.731591 -14.1275,-13.116961 -2.86513,-5.56744 -3,-6.3947 -3,-18.40175 0,-11.00564 0.28675,-13.1953 2.30122,-17.57225 2.75735,-5.99104 7.25994,-10.89743 12.69878,-13.83763 5.72701,-3.09598 21.14319,-3.07831 27,0.031 7.15931,3.80072 12.5,11.395 12.5,17.77456 0,2.36656 -0.32185,2.53212 -4.92245,2.53212 -4.69259,0 -4.97384,-0.15573 -6.02311,-3.33506 -0.60537,-1.83428 -2.46982,-4.64678 -4.14322,-6.25 -2.83472,-2.71583 -3.58073,-2.91494 -10.92134,-2.91494 -7.60882,0 -7.99924,0.11674 -11.39378,3.40686 -4.4962,4.35788 -6.5961,10.59545 -6.5961,19.59314 0,8.9598 2.09741,15.23284 6.52943,19.52852 2.94188,2.85138 4.31148,3.40468 9.32546,3.76736 9.49971,0.68715 16.03735,-3.73489 17.80892,-12.04588 0.54223,-2.54377 0.95178,-2.75 5.46119,-2.75 4.83784,0 4.87483,0.0248 4.85304,3.25 -0.0478,7.07031 -5.50771,14.92069 -13.10174,18.837901 -5.55903,2.8675 -18.43176,3.66542 -24.2488,1.50306 z m 71.2823,0.0379 c -6.26902,-2.24089 -10.70226,-6.461681 -14.15302,-13.474781 -3.13084,-6.3629 -3.25634,-7.0836 -3.24536,-18.63648 0.0129,-13.5203 1.69513,-18.99602 7.7898,-25.35525 5.7619,-6.01201 10.07629,-7.64714 20.19878,-7.6552 8.21503,-0.007 9.47971,0.26261 14.5,3.08595 7.0622,3.97168 11.36708,10.72585 12.9976,20.39266 0.63396,3.75855 1.00635,8.11184 0.82753,9.67398 l -0.32513,2.84026 -22.75,0.26877 c -17.85966,0.211 -22.75,0.54817 -22.75,1.5685 0,4.30753 3.34097,11.75492 6.52913,14.55416 4.26957,3.74873 6.92432,4.48448 14.04914,3.89363 4.51504,-0.37442 6.0858,-1.03637 8.87562,-3.74037 1.86435,-1.807 3.65848,-4.35628 3.98697,-5.66507 0.53923,-2.14847 1.13619,-2.37962 6.14558,-2.37962 5.2827,0 5.51674,0.10772 4.88838,2.25 -2.70621,9.22643 -8.32371,15.488311 -16.34695,18.222101 -5.40646,1.84216 -16.27837,1.9225 -21.21807,0.15678 z m 27.08865,-40.878861 c -0.005,-9.81403 -10.06641,-17.09292 -20.41398,-14.76797 -6.96664,1.5653 -11.39092,6.56206 -13.076,14.76797 l -0.66738,3.25 h 17.07945 17.07946 l -0.002,-3.25 z m -160.99845,8.75 v -31.5 h 5.5 5.5 v 4.73592 4.73591 l 2.25,-3.18457 c 3.0384,-4.30047 8.6274,-7.28726 13.63615,-7.28726 h 4.11385 v 5.5 c 0,5.33198 -0.084,5.50017 -2.75,5.50557 -7.75158,0.0157 -13.85811,4.14397 -16.11394,10.89365 -0.69183,2.07005 -1.13606,10.96581 -1.13606,22.75 V 102.6321 h -5.5 -5.5 z"
       id="path14" />
  </g>
</svg>
